HIERARCHY
ROOT Hips
{
	OFFSET 0.00 0.00 0.00
	CHANNELS 6 Xposition Yposition Zposition Xrotation Yrotation Zrotation
	JOINT Spine
	{
		OFFSET 0.00000 3.24121 0.00000
		CHANNELS 3 Xrotation Yrotation Zrotation
		JOINT Head
		{
			OFFSET 0.00000 18.38296 0.00000
			CHANNELS 3 Xrotation Yrotation Zrotation
			End Site
			{
				OFFSET 0.00000 4.52755 0.00000
			}
		}
		JOINT LeftShoulder
		{
			OFFSET 0.00000 12.82826 0.00000
			CHANNELS 3 Xrotation Yrotation Zrotation
			JOINT LeftArm
			{
				OFFSET 7.74805 0.00000 0.00000
				CHANNELS 3 Xrotation Yrotation Zrotation
				JOINT LeftForeArm
				{
					OFFSET 10.63561 0.00000 0.00000
					CHANNELS 3 Yrotation Zrotation Xrotation
					JOINT LeftHand
					{
						OFFSET 8.34675 0.00000 0.00000
						CHANNELS 3 Xrotation Yrotation Zrotation
						JOINT LeftHandThumb1
						{
							OFFSET 0.00000 0.00000 0.00000
							CHANNELS 3 Xrotation Zrotation Yrotation
							End Site
							{
								OFFSET 0.00000 0.00000 3.93700
							}
						}
						End Site
						{
							OFFSET 3.93700 0.00000 0.00000
						}
					}
				}
			}
		}
		JOINT RightShoulder
		{
			OFFSET 0.00000 12.82826 0.00000
			CHANNELS 3 Xrotation Yrotation Zrotation
			JOINT RightArm
			{
				OFFSET -7.74805 0.00000 0.00000
				CHANNELS 3 Xrotation Yrotation Zrotation
				JOINT RightForeArm
				{
					OFFSET -10.63561 0.00000 0.00000
					CHANNELS 3 Yrotation Zrotation Xrotation
					JOINT RightHand
					{
						OFFSET -8.34675 0.00000 0.00000
						CHANNELS 3 Xrotation Yrotation Zrotation
						JOINT RightHandThumb1
						{
							OFFSET 0.00000 0.00000 0.00000
							CHANNELS 3 Xrotation Zrotation Yrotation
							End Site
							{
								OFFSET 0.00000 0.00000 3.93700
							}
						}
						End Site
						{
							OFFSET -3.93700 0.00000 0.00000
						}
					}
				}
			}
		}
	}
	JOINT LeftUpLeg
	{
		OFFSET 3.43402 0.00000 0.00000
		CHANNELS 3 Xrotation Yrotation Zrotation
		JOINT LeftLeg
		{
			OFFSET 0.00000 -15.71302 0.00000
			CHANNELS 3 Xrotation Yrotation Zrotation
			JOINT LeftFoot
			{
				OFFSET 0.00000 -14.43512 0.00000
				CHANNELS 3 Xrotation Yrotation Zrotation
				JOINT LeftToeBase
				{
					OFFSET 0.00000 -1.27828 4.77061
					CHANNELS 3 Xrotation Yrotation Zrotation
					End Site
					{
						OFFSET 0.00000 0.00000 2.95275
					}
				}
			}
		}
	}
	JOINT RightUpLeg
	{
		OFFSET -3.43402 0.00000 0.00000
		CHANNELS 3 Xrotation Yrotation Zrotation
		JOINT RightLeg
		{
			OFFSET 0.00000 -15.71302 0.00000
			CHANNELS 3 Xrotation Yrotation Zrotation
			JOINT RightFoot
			{
				OFFSET 0.00000 -14.43512 0.00000
				CHANNELS 3 Xrotation Yrotation Zrotation
				JOINT RightToeBase
				{
					OFFSET 0.00000 -1.27828 4.77061
					CHANNELS 3 Xrotation Yrotation Zrotation
					End Site
					{
						OFFSET 0.00000 0.00000 2.95275
					}
				}
			}
		}
	}
}
MOTION
Frames: 13
Frame Time: 0.008333
 -2.2320 32.4178 -7.1224 34.4308 3.2195 -0.8992 -38.4826 -3.7778 0.1052 9.3515 -2.2348 -6.2762 32.3713 31.2644 19.8671 -55.5736 -8.3258 -35.5537 0.5188 0.0000 17.9759 0.8698 26.8333 -1.9264 33.1476 -0.0000 26.2537 33.1113 -32.4328 -22.2272 -49.8832 16.9587 44.0800 -1.6984 -0.0000 -15.9529 0.0242 -0.4704 2.9396 32.8623 0.0000 -24.3270 -28.9596 2.3659 0.3238 -0.4668 -0.0000 -0.0000 -6.2940 0.6407 -1.1796 4.4749 0.0000 0.0000 -28.0848 -6.1377 0.6599 -2.6816 0.0000 -0.0000 -8.5861 -11.8421 11.9840 18.4124 -0.0000 -0.0000
 -2.2222 32.4182 -7.1255 34.4707 3.2832 -0.9360 -38.5133 -3.7878 0.1371 9.4763 -2.1455 -6.3127 32.5946 31.2878 19.6589 -55.5970 -8.5163 -35.8448 0.3569 0.0000 18.3721 0.6901 26.9536 -1.5223 33.1476 -0.0000 26.2537 33.1651 -32.4351 -22.1834 -49.8814 16.8909 44.0877 -1.6334 -0.0000 -16.0773 0.0126 -0.3009 2.3905 32.8623 0.0000 -24.3270 -29.0078 2.2999 0.3064 -0.4745 -0.0000 0.0000 -6.2777 0.6351 -1.2215 4.4719 0.0000 0.0000 -28.1248 -6.1923 0.6392 -2.6764 -0.0000 -0.0000 -8.5798 -11.8598 12.0152 18.3859 -0.0000 -0.0000
 -2.2131 32.4181 -7.1253 34.4850 3.3742 -1.0020 -38.5236 -3.8193 0.1802 9.5884 -2.0778 -6.3601 32.8212 31.3044 19.4678 -55.2250 -8.9126 -36.1220 0.0467 0.0000 18.3204 0.5636 26.9950 -1.2414 33.1476 -0.0000 26.2537 33.2986 -32.5070 -22.0483 -49.8358 17.0385 44.0613 -1.6152 -0.0000 -16.4883 0.0009 -0.0252 1.9656 32.8623 0.0000 -24.3270 -29.0317 2.2168 0.3058 -0.4782 -0.0000 0.0000 -6.2717 0.5922 -1.2307 4.4801 -0.0000 -0.0000 -28.1186 -6.2924 0.6374 -2.6894 -0.0000 -0.0000 -8.5850 -11.8694 12.0204 18.3858 -0.0000 0.0000
 -2.2023 32.4181 -7.1307 34.5435 3.4256 -1.0298 -38.5635 -3.8064 0.2220 9.6619 -2.0236 -6.4295 33.0224 31.3161 19.2605 -54.9498 -9.2775 -36.4467 -0.2099 0.0000 18.4509 0.4038 27.0223 -0.8888 33.1476 -0.0000 26.2537 33.3700 -32.5390 -22.0003 -49.7589 17.0287 44.0950 -1.4848 -0.0000 -16.9119 -0.0100 0.4366 1.3095 32.8623 0.0000 -24.3270 -29.1038 2.1745 0.2838 -0.4784 -0.0000 -0.0000 -6.2681 0.5654 -1.2286 4.4868 0.0000 -0.0000 -28.1902 -6.3213 0.6124 -2.6674 -0.0000 0.0000 -8.6072 -11.9075 12.0383 18.4238 0.0000 -0.0000
 -2.1916 32.4182 -7.1339 34.5731 3.4837 -1.0614 -38.5807 -3.7847 0.2675 9.7654 -1.9652 -6.4956 33.2822 31.3132 19.0116 -54.6854 -9.6296 -36.7804 -0.5664 0.0000 18.5523 0.2011 27.0859 -0.4417 33.1476 -0.0000 26.2537 33.4529 -32.5706 -21.9769 -49.7245 16.8679 44.1873 -1.3066 -0.0000 -17.1311 -0.0054 0.9949 0.3093 32.8623 0.0000 -24.3270 -29.1431 2.1456 0.2646 -0.4793 -0.0000 0.0000 -6.2556 0.5180 -1.2580 4.4732 -0.0000 -0.0000 -28.2198 -6.3527 0.5886 -2.6641 0.0000 -0.0000 -8.6083 -11.9435 12.0729 18.4185 -0.0000 0.0000
 -2.1809 32.4178 -7.1368 34.6130 3.5684 -1.1068 -38.6073 -3.7724 0.3048 9.8684 -1.9164 -6.5358 33.6218 31.3278 18.7276 -54.4771 -10.0020 -37.1555 -0.9164 0.0000 18.6005 -0.0464 27.0414 0.1020 33.1476 -0.0000 26.2537 33.5968 -32.6560 -21.8761 -49.7552 16.8102 44.3037 -1.1856 -0.0000 -17.6962 0.0180 1.6176 -0.6384 32.8623 0.0000 -24.3270 -29.1957 2.0808 0.2449 -0.4797 -0.0000 -0.0000 -6.2468 0.4638 -1.2700 4.4639 -0.0000 -0.0000 -28.2496 -6.4180 0.5655 -2.6743 -0.0000 0.0000 -8.6063 -11.9796 12.0971 18.4017 0.0000 0.0000
 -2.1692 32.4176 -7.1394 34.6368 3.6724 -1.1634 -38.6186 -3.7923 0.3505 9.9737 -1.8450 -6.6288 33.9890 31.3312 18.4100 -54.3441 -10.2925 -37.5563 -1.3584 0.0000 18.7078 -0.2495 27.1560 0.5465 33.1476 -0.0000 26.2537 33.7475 -32.7083 -21.7774 -49.6409 16.8257 44.3969 -1.0881 -0.0000 -18.7085 0.0786 2.4711 -1.8217 32.8623 0.0000 -24.3270 -29.2275 1.9686 0.2255 -0.4944 -0.0000 0.0000 -6.2342 0.4462 -1.3053 4.4032 0.0000 -0.0000 -28.2693 -6.5356 0.5471 -2.6614 0.0000 0.0000 -8.6317 -12.0008 12.0640 18.4154 -0.0000 0.0000
 -2.1560 32.4175 -7.1422 34.6641 3.7879 -1.2363 -38.6326 -3.8196 0.4159 10.0736 -1.8154 -6.7063 34.3743 31.2980 18.0747 -54.0259 -10.6635 -37.9350 -1.9019 0.0000 18.7904 -0.4387 27.2444 0.9582 33.1476 -0.0000 26.2537 33.9288 -32.8157 -21.6484 -49.6754 16.8338 44.5638 -1.1385 -0.0000 -19.6610 0.1722 3.4697 -2.8435 32.8623 0.0000 -24.3270 -29.2722 1.8466 0.2093 -0.4922 -0.0000 0.0000 -6.2239 0.4222 -1.3129 4.3948 0.0000 -0.0000 -28.3159 -6.7225 0.5329 -2.5978 -0.0000 0.0000 -8.6729 -11.9793 12.0610 18.3971 0.0000 0.0000
 -2.1430 32.4172 -7.1479 34.6976 3.8932 -1.2950 -38.6396 -3.8355 0.4706 10.1598 -1.7603 -6.7683 34.7732 31.2725 17.7090 -54.0814 -10.7262 -38.3979 -2.5705 0.0000 19.2427 -0.6264 27.5922 1.3521 33.1476 -0.0000 26.2537 34.1224 -32.9086 -21.5513 -49.6789 16.7884 44.8010 -1.1669 -0.0000 -21.2666 0.3242 4.6602 -3.9837 32.8623 0.0000 -24.3270 -29.3212 1.7390 0.1874 -0.4965 0.0000 0.0000 -6.2059 0.3707 -1.3230 4.3542 0.0000 -0.0000 -28.3215 -6.7008 0.5051 -2.6470 0.0000 0.0000 -8.6586 -12.1080 12.0811 18.3966 0.0000 -0.0000
 -2.1288 32.4174 -7.1539 34.7187 3.9586 -1.3198 -38.6331 -3.7912 0.5270 10.2575 -1.7130 -6.8486 35.2694 31.2521 17.2792 -54.2030 -10.8032 -38.8856 -3.2421 0.0000 19.8308 -0.8313 27.7925 1.7824 33.1476 -0.0000 26.2537 34.3109 -32.9623 -21.4650 -49.5856 16.7310 45.0645 -1.1840 -0.0000 -23.4676 0.5444 6.0376 -5.1621 32.8623 0.0000 -24.3270 -29.3487 1.6908 0.1519 -0.5157 0.0000 0.0000 -6.1867 0.3584 -1.3495 4.3967 0.0000 -0.0000 -28.3559 -6.6929 0.4650 -2.6267 -0.0000 0.0000 -8.6761 -12.1865 12.0587 18.4139 -0.0000 -0.0000
 -2.1152 32.4173 -7.1603 34.7673 4.0445 -1.3684 -38.6522 -3.7809 0.5913 10.3466 -1.6562 -6.9273 35.7667 31.2341 16.8037 -54.2171 -11.0770 -39.3707 -3.8304 0.0000 20.2628 -1.0945 27.8887 2.3388 33.1476 -0.0000 26.2537 34.5336 -33.0215 -21.4040 -49.6124 16.5180 45.4194 -1.2618 -0.0000 -25.7263 0.8637 7.6631 -6.4499 32.8623 0.0000 -24.3270 -29.4115 1.6323 0.1273 -0.5251 0.0000 -0.0000 -6.1665 0.3009 -1.3730 4.3976 -0.0000 0.0000 -28.4308 -6.7578 0.4367 -2.5749 0.0000 -0.0000 -8.7094 -12.2307 12.0691 18.3795 0.0000 0.0000
 -2.1007 32.4179 -7.1675 34.8154 4.1638 -1.4326 -38.6678 -3.7930 0.6629 10.4349 -1.5979 -7.0314 36.3572 31.2324 16.2576 -54.2728 -11.3411 -39.9093 -4.5804 0.0000 20.6558 -1.4541 28.0270 3.0922 33.1476 -0.0000 26.2537 34.7431 -33.0545 -21.3262 -49.6283 16.2665 45.7438 -1.3284 -0.0000 -28.4998 1.1150 8.5568 -7.4523 32.8623 0.0000 -24.3270 -29.4836 1.5242 0.0961 -0.5244 0.0000 -0.0000 -6.1386 0.2535 -1.3604 4.3947 -0.0000 -0.0000 -28.4874 -6.8092 0.4024 -2.5505 -0.0000 -0.0000 -8.7309 -12.3084 12.0275 18.3818 -0.0000 0.0000
 -2.0859 32.4180 -7.1748 34.8560 4.2971 -1.5068 -38.6745 -3.8072 0.7297 10.5409 -1.5312 -7.1087 36.8718 31.2048 15.7704 -54.2491 -11.5651 -40.4917 -5.4357 0.0000 21.0503 -1.7459 28.2120 3.6893 33.1476 -0.0000 26.2537 35.0682 -33.1242 -21.1357 -49.7310 16.0082 46.0910 -1.3293 -0.0000 -31.2987 1.4680 9.5773 -8.7563 32.8623 0.0000 -24.3270 -29.5562 1.4039 0.0677 -0.5073 0.0000 -0.0000 -6.1268 0.2102 -1.3796 4.4005 -0.0000 0.0000 -28.5291 -6.8816 0.3686 -2.5342 0.0000 0.0000 -8.7463 -12.3895 12.0499 18.3773 -0.0000 -0.0000
